<?xml version="1.0" standalone="no"?>
<!DOCTYPE svg PUBLIC "-//W3C//DTD SVG 20010904//EN"
 "http://www.w3.org/TR/2001/REC-SVG-20010904/DTD/svg10.dtd">
<svg version="1.0" xmlns="http://www.w3.org/2000/svg"
 width="600.000000pt" height="600.000000pt" viewBox="0 0 600.000000 600.000000"
 preserveAspectRatio="xMidYMid meet">
<metadata>
Created by potrace 1.11, written by Peter Selinger 2001-2013
</metadata>
<g transform="translate(0.000000,600.000000) scale(0.100000,-0.100000)"
fill="#000000" stroke="none">
<path d="M2353 5265 c-356 -65 -667 -315 -799 -640 -68 -166 -76 -216 -82
-477 l-4 -238 -82 0 -81 0 -210 211 c-116 116 -241 236 -279 266 -88 72 -186
123 -234 123 -43 0 -48 -3 -85 -49 -24 -29 -27 -40 -22 -70 19 -102 101 -209
370 -481 127 -129 239 -248 249 -263 36 -58 66 -67 227 -67 l147 0 4 -232 c4
-197 8 -245 26 -311 75 -276 232 -497 461 -647 l22 -15 -67 -115 c-135 -231
-184 -360 -184 -481 0 -86 15 -134 55 -177 33 -37 34 -37 115 -37 78 0 81 -1
87 -25 3 -14 19 -58 36 -99 l30 -74 -12 -136 c-22 -273 -10 -419 46 -529 34
-67 98 -122 150 -129 106 -13 220 107 269 287 14 48 21 59 33 55 165 -65 260
-78 536 -73 201 4 240 8 310 28 44 12 86 23 93 24 8 0 21 -21 31 -54 40 -127
111 -223 188 -256 113 -48 229 56 268 241 16 76 19 249 6 383 -8 82 -8 84 27
149 19 37 45 96 58 132 l23 66 53 7 c92 11 138 84 138 217 0 110 -48 247 -145
412 -21 35 -47 94 -59 131 l-22 68 66 49 c185 138 325 351 392 598 18 66 22
114 26 311 l4 232 152 0 c170 0 201 10 234 73 9 17 119 136 243 262 263 268
345 375 364 476 5 30 2 41 -22 70 -37 46 -42 49 -85 49 -48 0 -146 -51 -234
-123 -38 -30 -163 -150 -279 -266 l-210 -211 -81 0 -82 0 -4 238 c-6 261 -14
311 -82 477 -100 246 -325 471 -571 571 -197 81 -168 78 -845 80 -467 2 -621
0 -677 -11z"/>
</g>
</svg>
